# xmcd
#
# Track frame offsets:
# 150
# 14045
# 27826
# 43905
# 58111
# 83746
# 105652
# 116482
# 135729
# 155021
# 168351
# 187665
# 205312
# 220903
# 241635
#
# Disc length: 3440 seconds
#
# Revision: 2
# Processed by: cddbd v1.5.1PL2 Copyright (c) Steve Scherf et al.
# Submitted via: Audio-CD-Archiv 4.00.530
#
DISCID=c90d6e0f
DTITLE=Yellow Moon - Across the border
DYEAR=2003
DGENRE=blues
TTITLE0=Yellow Moon - C'est pas la peine de pleurer
TTITLE1=Yellow Moon - Washed my hands in muddy waters
TTITLE2=Yellow Moon - Man of many words
TTITLE3=Yellow Moon - At the greener side
TTITLE4=Yellow Moon - Across the border
TTITLE5=Yellow Moon - Parchman farm
TTITLE6=Yellow Moon - Laissez moi tranquille
TTITLE7=Yellow Moon - Yellow moon
TTITLE8=Yellow Moon - Bons temps
TTITLE9=Yellow Moon - The man I left behind
TTITLE10=Yellow Moon - You can't keep me here in Tennessee
TTITLE11=Yellow Moon - Flow little river
TTITLE12=Yellow Moon - Marie, Marie
TTITLE13=Yellow Moon - Frankie and Johnny
TTITLE14=Yellow Moon - I know when I've had enough
EXTD=
EXTT0=
EXTT1=
EXTT2=
EXTT3=
EXTT4=
EXTT5=
EXTT6=
EXTT7=
EXTT8=
EXTT9=
EXTT10=
EXTT11=
EXTT12=
EXTT13=
EXTT14=
PLAYORDER=
